<?xml version="1.0" encoding="UTF-8"?>
<svg version="1.1" xmlns="http://www.w3.org/2000/svg" width="128" height="128">
<path d="M0 0 C0.804375 -0.00128906 1.60875 -0.00257812 2.4375 -0.00390625 C3.283125 -0.00003906 4.12875 0.00382813 5 0.0078125 C6.2684375 0.00201172 6.2684375 0.00201172 7.5625 -0.00390625 C8.366875 -0.00261719 9.17125 -0.00132813 10 0 C10.7425 0.00112793 11.485 0.00225586 12.25 0.00341797 C14 0.1328125 14 0.1328125 15 1.1328125 C15.125 4.1328125 15.125 4.1328125 15 7.1328125 C14 8.1328125 14 8.1328125 11.49609375 8.23046875 C9.98208984 8.21306641 9.98208984 8.21306641 8.4375 8.1953125 C7.42558594 8.18628906 6.41367187 8.17726563 5.37109375 8.16796875 C4.19740234 8.15056641 4.19740234 8.15056641 3 8.1328125 C3.11119164 11.46675377 3.24149734 14.79969599 3.375 18.1328125 C3.4059375 19.06738281 3.436875 20.00195312 3.46875 20.96484375 C3.85159643 30.08935037 5.18294155 37.82086752 11 45.1328125 C15.89851079 49.56479845 21.5518031 50.69253732 28 51.1328125 C33.53067048 50.67745713 37.53679587 48.32081545 42 45.1328125 C42.66 45.1328125 43.32 45.1328125 44 45.1328125 C44.268125 44.5965625 44.53625 44.0603125 44.8125 43.5078125 C45.69599055 41.7408314 46.61915098 39.9935747 47.5625 38.2578125 C50.46705772 31.94355658 50.27983311 25.09742447 50.5625 18.2578125 C50.62727539 16.79601563 50.62727539 16.79601563 50.69335938 15.3046875 C50.79882274 12.91418448 50.90094175 10.52358806 51 8.1328125 C50.21753906 8.14441406 49.43507812 8.15601563 48.62890625 8.16796875 C47.61699219 8.17699219 46.60507813 8.18601562 45.5625 8.1953125 C44.55316406 8.20691406 43.54382813 8.21851563 42.50390625 8.23046875 C40 8.1328125 40 8.1328125 39 7.1328125 C38.875 4.1328125 38.875 4.1328125 39 1.1328125 C40.5220959 -0.3892834 41.88210082 0.00321729 44 0 C44.804375 -0.00128906 45.60875 -0.00257812 46.4375 -0.00390625 C47.283125 -0.00003906 48.12875 0.00382813 49 0.0078125 C50.2684375 0.00201172 50.2684375 0.00201172 51.5625 -0.00390625 C52.366875 -0.00261719 53.17125 -0.00132813 54 0 C54.7425 0.00112793 55.485 0.00225586 56.25 0.00341797 C58 0.1328125 58 0.1328125 59 1.1328125 C59.31855931 5.91865381 59.3572637 10.70730913 59.4050293 15.50268555 C59.42641757 17.11163041 59.46028693 18.72046521 59.50756836 20.32885742 C59.87303815 32.88359023 58.37387161 42.39299863 49.625 52.1328125 C43.94517195 57.26217263 38.54780241 59.20748095 31 60.1328125 C31.08181974 63.46708006 31.19457074 66.79964219 31.3125 70.1328125 C31.34633789 71.53466797 31.34633789 71.53466797 31.38085938 72.96484375 C31.62234485 79.243466 32.04446248 85.70713682 36.34448242 90.69116211 C42.24077781 96.00431774 49.00539455 95.42263578 56.546875 95.34375 C61.65408173 95.03177131 65.68746143 94.26352985 69.58984375 90.66796875 C72.22591273 87.8013215 72.22591273 87.8013215 73 84.1328125 C72.113125 83.7409375 71.22625 83.3490625 70.3125 82.9453125 C64.781567 79.91895293 61.07029331 76.12576681 59 70.1328125 C58.34631993 63.62287533 58.09316899 57.65626324 62 52.1328125 C65.97143737 47.51735826 69.63537047 44.47066388 75.83984375 43.84765625 C83.33931652 43.63444503 87.89939161 44.46484714 93.6875 49.4453125 C98.66796536 55.23342089 99.49836747 59.79349598 99.28515625 67.29296875 C98.66214862 73.49744203 95.61545424 77.16137513 91 81.1328125 C85.72413793 84.1328125 85.72413793 84.1328125 83 84.1328125 C82.95875 84.9578125 82.9175 85.7828125 82.875 86.6328125 C80.95861013 94.29837197 75.50928739 99.07985998 69 103.1328125 C63.92505641 104.82446036 58.62591619 104.4017361 53.3125 104.4453125 C52.15298828 104.47431641 50.99347656 104.50332031 49.79882812 104.53320312 C41.57499011 104.59398192 36.00387664 103.64143611 29.7578125 98.16796875 C29.21898437 97.51699219 28.68015625 96.86601563 28.125 96.1953125 C27.57070313 95.54691406 27.01640625 94.89851563 26.4453125 94.23046875 C23.400702 89.81166919 22.75425975 86.05840887 22.8046875 80.73828125 C22.81113281 79.53623047 22.81757812 78.33417969 22.82421875 77.09570312 C22.84097656 75.84982422 22.85773437 74.60394531 22.875 73.3203125 C22.88402344 72.05509766 22.89304687 70.78988281 22.90234375 69.48632812 C22.92587606 66.36829686 22.95875455 63.25065153 23 60.1328125 C21.92621094 60.00003906 20.85242188 59.86726563 19.74609375 59.73046875 C11.21402457 58.36925229 5.40163788 53.75610684 0 47.1328125 C-3.8475819 40.91237029 -5.15258322 35.51434331 -5.1328125 28.21875 C-5.13376923 27.44850494 -5.13472595 26.67825989 -5.13571167 25.88467407 C-5.13639151 24.25905272 -5.13455088 22.63342863 -5.13037109 21.0078125 C-5.12500546 18.51035529 -5.13033015 16.01307673 -5.13671875 13.515625 C-5.13605822 11.9374996 -5.13477758 10.35937431 -5.1328125 8.78125 C-5.13483673 8.03024017 -5.13686096 7.27923035 -5.13894653 6.50546265 C-5.10930434 0.00776153 -5.10930434 0.00776153 0 0 Z M71 55.1328125 C67.93509036 58.09555848 67.16580101 60.90488687 67 65.1328125 C68.44670278 69.62520534 69.69932094 72.9210347 74 75.1328125 C77.90727743 76.34840992 79.751944 76.21269494 83.6875 74.9453125 C88.02431362 72.57233901 89.42138818 70.99263621 90.875 66.3203125 C91.03741625 62.17869822 89.97848198 59.74865888 88 56.1328125 C82.79754347 50.75096092 77.12386469 51.78201861 71 55.1328125 Z " fill="#2F7FEC" transform="translate(25,15.8671875)"/>
<path d="M0 0 C4.34586828 -0.39507893 6.32003497 -0.45331002 10 2 C10.39507893 6.34586828 10.45331002 8.32003497 8 12 C3.65413172 12.39507893 1.67996503 12.45331002 -2 10 C-2.39507893 5.65413172 -2.45331002 3.67996503 0 0 Z " fill="#2F7FEC" transform="translate(100,74)"/>
</svg>
